<svg xmlns="http://www.w3.org/2000/svg">
    <symbol id="arrowLeft" viewBox="0 0 166 292">
    <path d="M159.623 286.576C156.008 290.193 151.724 292 146.776 292C141.827 292 137.543 290.193 133.928 286.576L6.02199 158.669C2.40699 155.052 0.597992 150.771 0.597992 145.822C0.597992 140.873 2.40699 136.589 6.02199 132.975L133.928 5.06799C137.542 1.45099 141.826 -0.359985 146.776 -0.359985C151.724 -0.359985 156.008 1.45099 159.623 5.06799C163.24 8.68199 165.05 12.966 165.05 17.915V273.729C165.049 278.678 163.24 282.958 159.623 286.576Z"/>
    </symbol>

    <symbol id="arrowRight" viewBox="0 0 166 292">
    <path d="M6.02499 286.576C9.63999 290.193 13.924 292 18.872 292C23.821 292 28.105 290.193 31.72 286.576L159.626 158.669C163.241 155.052 165.05 150.771 165.05 145.822C165.05 140.873 163.241 136.589 159.626 132.975L31.72 5.06799C28.106 1.45099 23.822 -0.359985 18.872 -0.359985C13.924 -0.359985 9.63999 1.45099 6.02499 5.06799C2.40799 8.68199 0.597992 12.966 0.597992 17.915V273.729C0.598992 278.678 2.40799 282.958 6.02499 286.576Z"/>
    </symbol>
</svg>