<svg width="144" height="28" viewBox="0 0 144 28" fill="none" xmlns="http://www.w3.org/2000/svg">
<mask id="path-1-outside-1_4_13" maskUnits="userSpaceOnUse" x="-1" y="-0.5" width="146" height="29" fill="black">
<rect fill="white" x="-1" y="-0.5" width="146" height="29"/>
<path d="M15.0469 21.4375L0.015625 15.1719V12L15.0469 5.71875V9.84375L5.76562 13.5781L15.0469 17.2969V21.4375ZM28.5312 0.71875L21.0312 26.9844H16.25L23.7969 0.71875H28.5312ZM45.0625 16.0156C45.0625 18.5573 45 20.3594 44.875 21.4219C44.7604 22.474 44.3854 23.4375 43.75 24.3125C43.125 25.1875 42.276 25.8594 41.2031 26.3281C40.1302 26.7969 38.8802 27.0312 37.4531 27.0312C36.099 27.0312 34.8802 26.8125 33.7969 26.375C32.724 25.9271 31.8594 25.2604 31.2031 24.375C30.5469 23.4896 30.1562 22.526 30.0312 21.4844C29.9062 20.4427 29.8438 18.6198 29.8438 16.0156V11.6875C29.8438 9.14583 29.901 7.34896 30.0156 6.29688C30.1406 5.23438 30.5156 4.26562 31.1406 3.39062C31.776 2.51562 32.6302 1.84375 33.7031 1.375C34.776 0.90625 36.026 0.671875 37.4531 0.671875C38.8073 0.671875 40.0208 0.895833 41.0938 1.34375C42.1771 1.78125 43.0469 2.44271 43.7031 3.32812C44.3594 4.21354 44.75 5.17708 44.875 6.21875C45 7.26042 45.0625 9.08333 45.0625 11.6875V16.0156ZM38.4844 7.70312C38.4844 6.52604 38.4167 5.77604 38.2812 5.45312C38.1562 5.11979 37.8906 4.95312 37.4844 4.95312C37.1406 4.95312 36.875 5.08854 36.6875 5.35938C36.5104 5.61979 36.4219 6.40104 36.4219 7.70312V19.5156C36.4219 20.9844 36.4792 21.8906 36.5938 22.2344C36.7188 22.5781 37 22.75 37.4375 22.75C37.8854 22.75 38.1719 22.5521 38.2969 22.1562C38.4219 21.7604 38.4844 20.8177 38.4844 19.3281V7.70312ZM128.891 5.71875L143.922 11.9688V15.1562L128.891 21.4375V17.3125L138.172 13.5781L128.891 9.85938V5.71875Z"/>
<path d="M53.7656 5.76562L53.6562 7.67188C54.1146 6.91146 54.6719 6.34375 55.3281 5.96875C55.9948 5.58333 56.7604 5.39062 57.625 5.39062C58.7083 5.39062 59.5938 5.64583 60.2812 6.15625C60.9688 6.66667 61.4115 7.3125 61.6094 8.09375C61.8073 8.86458 61.9062 10.1562 61.9062 11.9688V26.5H55.5938V12.1406C55.5938 10.7135 55.5469 9.84375 55.4531 9.53125C55.3594 9.21875 55.099 9.0625 54.6719 9.0625C54.224 9.0625 53.9427 9.24479 53.8281 9.60938C53.7135 9.96354 53.6562 10.9219 53.6562 12.4844V26.5H47.3438V5.76562H53.7656ZM70.75 3V6.26562H72.4531V9.54688H70.75V20.6406C70.75 22.0052 70.8177 22.7656 70.9531 22.9219C71.099 23.0781 71.6875 23.1562 72.7188 23.1562V26.5H70.1719C68.7344 26.5 67.7083 26.4427 67.0938 26.3281C66.4792 26.2031 65.9375 25.9271 65.4688 25.5C65 25.0625 64.7083 24.5677 64.5938 24.0156C64.4792 23.4531 64.4219 22.1406 64.4219 20.0781V9.54688H63.0625V6.26562H64.4219V3H70.75ZM79.4844 13.7969H73.5625V12.4062C73.5625 10.8021 73.7448 9.56771 74.1094 8.70312C74.4844 7.82812 75.2292 7.05729 76.3438 6.39062C77.4583 5.72396 78.9062 5.39062 80.6875 5.39062C82.8229 5.39062 84.4323 5.77083 85.5156 6.53125C86.599 7.28125 87.25 8.20833 87.4688 9.3125C87.6875 10.4062 87.7969 12.6667 87.7969 16.0938V26.5H81.6562V24.6562C81.2708 25.3958 80.7708 25.9531 80.1562 26.3281C79.5521 26.6927 78.8281 26.875 77.9844 26.875C76.8802 26.875 75.8646 26.5677 74.9375 25.9531C74.0208 25.3281 73.5625 23.9688 73.5625 21.875V20.1719C73.5625 18.6198 73.8073 17.5625 74.2969 17C74.7865 16.4375 76 15.7812 77.9375 15.0312C80.0104 14.2188 81.1198 13.6719 81.2656 13.3906C81.4115 13.1094 81.4844 12.5365 81.4844 11.6719C81.4844 10.5885 81.401 9.88542 81.2344 9.5625C81.0781 9.22917 80.8125 9.0625 80.4375 9.0625C80.0104 9.0625 79.7448 9.20312 79.6406 9.48438C79.5365 9.75521 79.4844 10.4688 79.4844 11.625V13.7969ZM81.4844 16.6406C80.474 17.3802 79.8854 18 79.7188 18.5C79.5625 19 79.4844 19.7188 79.4844 20.6562C79.4844 21.7292 79.5521 22.4219 79.6875 22.7344C79.8333 23.0469 80.1146 23.2031 80.5312 23.2031C80.9271 23.2031 81.1823 23.0833 81.2969 22.8438C81.4219 22.5938 81.4844 21.9479 81.4844 20.9062V16.6406ZM96.4688 1.20312V26.5H89.9688V1.20312H96.4688ZM113.047 16.5H104.875V20.9844C104.875 21.9219 104.943 22.526 105.078 22.7969C105.214 23.0677 105.474 23.2031 105.859 23.2031C106.339 23.2031 106.656 23.026 106.812 22.6719C106.979 22.3073 107.062 21.6094 107.062 20.5781V17.8438H113.047V19.375C113.047 20.6562 112.964 21.6406 112.797 22.3281C112.641 23.0156 112.266 23.75 111.672 24.5312C111.078 25.3125 110.323 25.901 109.406 26.2969C108.5 26.6823 107.359 26.875 105.984 26.875C104.651 26.875 103.474 26.6823 102.453 26.2969C101.432 25.9115 100.635 25.3854 100.062 24.7188C99.5 24.0417 99.1094 23.3021 98.8906 22.5C98.6719 21.6875 98.5625 20.5104 98.5625 18.9688V12.9219C98.5625 11.1094 98.8073 9.68229 99.2969 8.64062C99.7865 7.58854 100.589 6.78646 101.703 6.23438C102.818 5.67188 104.099 5.39062 105.547 5.39062C107.318 5.39062 108.776 5.72917 109.922 6.40625C111.078 7.07292 111.885 7.96354 112.344 9.07812C112.812 10.1823 113.047 11.7396 113.047 13.75V16.5ZM106.719 13.125V11.6094C106.719 10.5365 106.661 9.84375 106.547 9.53125C106.432 9.21875 106.198 9.0625 105.844 9.0625C105.406 9.0625 105.135 9.19792 105.031 9.46875C104.927 9.72917 104.875 10.4427 104.875 11.6094V13.125H106.719ZM127.625 5.76562L125.109 15.6719L128.156 26.5H122.016C121.411 23.7708 120.953 21.4219 120.641 19.4531C120.224 21.9115 119.771 24.2604 119.281 26.5H114L116.719 15.6719L114 5.76562H119.281C120.125 9.99479 120.578 12.3958 120.641 12.9688C121.245 9.4375 121.703 7.03646 122.016 5.76562H127.625Z"/>
</mask>
<path d="M15.0469 21.4375L0.015625 15.1719V12L15.0469 5.71875V9.84375L5.76562 13.5781L15.0469 17.2969V21.4375ZM28.5312 0.71875L21.0312 26.9844H16.25L23.7969 0.71875H28.5312ZM45.0625 16.0156C45.0625 18.5573 45 20.3594 44.875 21.4219C44.7604 22.474 44.3854 23.4375 43.75 24.3125C43.125 25.1875 42.276 25.8594 41.2031 26.3281C40.1302 26.7969 38.8802 27.0312 37.4531 27.0312C36.099 27.0312 34.8802 26.8125 33.7969 26.375C32.724 25.9271 31.8594 25.2604 31.2031 24.375C30.5469 23.4896 30.1562 22.526 30.0312 21.4844C29.9062 20.4427 29.8438 18.6198 29.8438 16.0156V11.6875C29.8438 9.14583 29.901 7.34896 30.0156 6.29688C30.1406 5.23438 30.5156 4.26562 31.1406 3.39062C31.776 2.51562 32.6302 1.84375 33.7031 1.375C34.776 0.90625 36.026 0.671875 37.4531 0.671875C38.8073 0.671875 40.0208 0.895833 41.0938 1.34375C42.1771 1.78125 43.0469 2.44271 43.7031 3.32812C44.3594 4.21354 44.75 5.17708 44.875 6.21875C45 7.26042 45.0625 9.08333 45.0625 11.6875V16.0156ZM38.4844 7.70312C38.4844 6.52604 38.4167 5.77604 38.2812 5.45312C38.1562 5.11979 37.8906 4.95312 37.4844 4.95312C37.1406 4.95312 36.875 5.08854 36.6875 5.35938C36.5104 5.61979 36.4219 6.40104 36.4219 7.70312V19.5156C36.4219 20.9844 36.4792 21.8906 36.5938 22.2344C36.7188 22.5781 37 22.75 37.4375 22.75C37.8854 22.75 38.1719 22.5521 38.2969 22.1562C38.4219 21.7604 38.4844 20.8177 38.4844 19.3281V7.70312ZM128.891 5.71875L143.922 11.9688V15.1562L128.891 21.4375V17.3125L138.172 13.5781L128.891 9.85938V5.71875Z" fill="#7A4CC6"/>
<path d="M53.7656 5.76562L53.6562 7.67188C54.1146 6.91146 54.6719 6.34375 55.3281 5.96875C55.9948 5.58333 56.7604 5.39062 57.625 5.39062C58.7083 5.39062 59.5938 5.64583 60.2812 6.15625C60.9688 6.66667 61.4115 7.3125 61.6094 8.09375C61.8073 8.86458 61.9062 10.1562 61.9062 11.9688V26.5H55.5938V12.1406C55.5938 10.7135 55.5469 9.84375 55.4531 9.53125C55.3594 9.21875 55.099 9.0625 54.6719 9.0625C54.224 9.0625 53.9427 9.24479 53.8281 9.60938C53.7135 9.96354 53.6562 10.9219 53.6562 12.4844V26.5H47.3438V5.76562H53.7656ZM70.75 3V6.26562H72.4531V9.54688H70.75V20.6406C70.75 22.0052 70.8177 22.7656 70.9531 22.9219C71.099 23.0781 71.6875 23.1562 72.7188 23.1562V26.5H70.1719C68.7344 26.5 67.7083 26.4427 67.0938 26.3281C66.4792 26.2031 65.9375 25.9271 65.4688 25.5C65 25.0625 64.7083 24.5677 64.5938 24.0156C64.4792 23.4531 64.4219 22.1406 64.4219 20.0781V9.54688H63.0625V6.26562H64.4219V3H70.75ZM79.4844 13.7969H73.5625V12.4062C73.5625 10.8021 73.7448 9.56771 74.1094 8.70312C74.4844 7.82812 75.2292 7.05729 76.3438 6.39062C77.4583 5.72396 78.9062 5.39062 80.6875 5.39062C82.8229 5.39062 84.4323 5.77083 85.5156 6.53125C86.599 7.28125 87.25 8.20833 87.4688 9.3125C87.6875 10.4062 87.7969 12.6667 87.7969 16.0938V26.5H81.6562V24.6562C81.2708 25.3958 80.7708 25.9531 80.1562 26.3281C79.5521 26.6927 78.8281 26.875 77.9844 26.875C76.8802 26.875 75.8646 26.5677 74.9375 25.9531C74.0208 25.3281 73.5625 23.9688 73.5625 21.875V20.1719C73.5625 18.6198 73.8073 17.5625 74.2969 17C74.7865 16.4375 76 15.7812 77.9375 15.0312C80.0104 14.2188 81.1198 13.6719 81.2656 13.3906C81.4115 13.1094 81.4844 12.5365 81.4844 11.6719C81.4844 10.5885 81.401 9.88542 81.2344 9.5625C81.0781 9.22917 80.8125 9.0625 80.4375 9.0625C80.0104 9.0625 79.7448 9.20312 79.6406 9.48438C79.5365 9.75521 79.4844 10.4688 79.4844 11.625V13.7969ZM81.4844 16.6406C80.474 17.3802 79.8854 18 79.7188 18.5C79.5625 19 79.4844 19.7188 79.4844 20.6562C79.4844 21.7292 79.5521 22.4219 79.6875 22.7344C79.8333 23.0469 80.1146 23.2031 80.5312 23.2031C80.9271 23.2031 81.1823 23.0833 81.2969 22.8438C81.4219 22.5938 81.4844 21.9479 81.4844 20.9062V16.6406ZM96.4688 1.20312V26.5H89.9688V1.20312H96.4688ZM113.047 16.5H104.875V20.9844C104.875 21.9219 104.943 22.526 105.078 22.7969C105.214 23.0677 105.474 23.2031 105.859 23.2031C106.339 23.2031 106.656 23.026 106.812 22.6719C106.979 22.3073 107.062 21.6094 107.062 20.5781V17.8438H113.047V19.375C113.047 20.6562 112.964 21.6406 112.797 22.3281C112.641 23.0156 112.266 23.75 111.672 24.5312C111.078 25.3125 110.323 25.901 109.406 26.2969C108.5 26.6823 107.359 26.875 105.984 26.875C104.651 26.875 103.474 26.6823 102.453 26.2969C101.432 25.9115 100.635 25.3854 100.062 24.7188C99.5 24.0417 99.1094 23.3021 98.8906 22.5C98.6719 21.6875 98.5625 20.5104 98.5625 18.9688V12.9219C98.5625 11.1094 98.8073 9.68229 99.2969 8.64062C99.7865 7.58854 100.589 6.78646 101.703 6.23438C102.818 5.67188 104.099 5.39062 105.547 5.39062C107.318 5.39062 108.776 5.72917 109.922 6.40625C111.078 7.07292 111.885 7.96354 112.344 9.07812C112.812 10.1823 113.047 11.7396 113.047 13.75V16.5ZM106.719 13.125V11.6094C106.719 10.5365 106.661 9.84375 106.547 9.53125C106.432 9.21875 106.198 9.0625 105.844 9.0625C105.406 9.0625 105.135 9.19792 105.031 9.46875C104.927 9.72917 104.875 10.4427 104.875 11.6094V13.125H106.719ZM127.625 5.76562L125.109 15.6719L128.156 26.5H122.016C121.411 23.7708 120.953 21.4219 120.641 19.4531C120.224 21.9115 119.771 24.2604 119.281 26.5H114L116.719 15.6719L114 5.76562H119.281C120.125 9.99479 120.578 12.3958 120.641 12.9688C121.245 9.4375 121.703 7.03646 122.016 5.76562H127.625Z" fill="#F0E3CA"/>
<path d="M15.0469 21.4375L14.6621 22.3605L16.0469 22.9377V21.4375H15.0469ZM0.015625 15.1719H-0.984375V15.8384L-0.369127 16.0949L0.015625 15.1719ZM0.015625 12L-0.369944 11.0773L-0.984375 11.3341V12H0.015625ZM15.0469 5.71875H16.0469V4.21707L14.6613 4.79607L15.0469 5.71875ZM15.0469 9.84375L15.4201 10.7715L16.0469 10.5193V9.84375H15.0469ZM5.76562 13.5781L5.39235 12.6504L3.0818 13.5801L5.3937 14.5064L5.76562 13.5781ZM15.0469 17.2969H16.0469V16.6203L15.4188 16.3686L15.0469 17.2969ZM15.4316 20.5145L0.400377 14.2489L-0.369127 16.0949L14.6621 22.3605L15.4316 20.5145ZM1.01562 15.1719V12H-0.984375V15.1719H1.01562ZM0.401194 12.9227L15.4324 6.64143L14.6613 4.79607L-0.369944 11.0773L0.401194 12.9227ZM14.0469 5.71875V9.84375H16.0469V5.71875H14.0469ZM14.6736 8.91603L5.39235 12.6504L6.1389 14.5058L15.4201 10.7715L14.6736 8.91603ZM5.3937 14.5064L14.6749 18.2251L15.4188 16.3686L6.13755 12.6499L5.3937 14.5064ZM14.0469 17.2969V21.4375H16.0469V17.2969H14.0469ZM28.5312 0.71875L29.4928 0.99332L29.8568 -0.28125H28.5312V0.71875ZM21.0312 26.9844V27.9844H21.7857L21.9928 27.2589L21.0312 26.9844ZM16.25 26.9844L15.2889 26.7082L14.9222 27.9844H16.25V26.9844ZM23.7969 0.71875V-0.28125H23.0437L22.8358 0.442594L23.7969 0.71875ZM27.5697 0.44418L20.0697 26.7098L21.9928 27.2589L29.4928 0.99332L27.5697 0.44418ZM21.0312 25.9844H16.25V27.9844H21.0312V25.9844ZM17.2111 27.2605L24.758 0.994906L22.8358 0.442594L15.2889 26.7082L17.2111 27.2605ZM23.7969 1.71875H28.5312V-0.28125H23.7969V1.71875ZM44.875 21.4219L43.8818 21.305L43.8809 21.3136L44.875 21.4219ZM43.75 24.3125L42.9408 23.7249L42.9363 23.7313L43.75 24.3125ZM33.7969 26.375L33.4116 27.2979L33.4224 27.3022L33.7969 26.375ZM30.0156 6.29688L29.0224 6.18003L29.0215 6.1886L30.0156 6.29688ZM31.1406 3.39062L30.3314 2.80301L30.3269 2.80939L31.1406 3.39062ZM41.0938 1.34375L40.7085 2.26662L40.7193 2.27099L41.0938 1.34375ZM38.2812 5.45312L37.3449 5.80425L37.3516 5.82219L37.3591 5.83985L38.2812 5.45312ZM36.6875 5.35938L35.8653 4.79015L35.8606 4.79706L36.6875 5.35938ZM36.5938 22.2344L35.6451 22.5506L35.6493 22.5634L35.654 22.5761L36.5938 22.2344ZM38.2969 22.1562L37.3433 21.8551L38.2969 22.1562ZM44.0625 16.0156C44.0625 18.5566 43.9993 20.3065 43.8818 21.305L45.8682 21.5387C46.0007 20.4122 46.0625 18.5579 46.0625 16.0156H44.0625ZM43.8809 21.3136C43.7856 22.1886 43.4763 22.9876 42.9408 23.7249L44.5592 24.9001C45.2946 23.8874 45.7353 22.7593 45.8691 21.5301L43.8809 21.3136ZM42.9363 23.7313C42.4255 24.4463 41.7254 25.0087 40.8028 25.4118L41.6035 27.2445C42.8267 26.7101 43.8245 25.9287 44.5637 24.8937L42.9363 23.7313ZM40.8028 25.4118C39.8806 25.8147 38.7719 26.0312 37.4531 26.0312V28.0312C38.9886 28.0312 40.3799 27.7791 41.6035 27.2445L40.8028 25.4118ZM37.4531 26.0312C36.2071 26.0312 35.1183 25.8302 34.1713 25.4478L33.4224 27.3022C34.6421 27.7948 35.9908 28.0312 37.4531 28.0312V26.0312ZM34.1821 25.4522C33.266 25.0697 32.5495 24.5121 32.0065 23.7795L30.3997 24.9705C31.1693 26.0088 32.1819 26.7844 33.4116 27.2978L34.1821 25.4522ZM32.0065 23.7795C31.4483 23.0264 31.1274 22.2255 31.0241 21.3652L29.0384 21.6035C29.1851 22.8266 29.6454 23.9528 30.3997 24.9705L32.0065 23.7795ZM31.0241 21.3652C30.9071 20.3897 30.8438 18.6212 30.8438 16.0156H28.8438C28.8438 18.6184 28.9054 20.4958 29.0384 21.6035L31.0241 21.3652ZM30.8438 16.0156V11.6875H28.8438V16.0156H30.8438ZM30.8438 11.6875C30.8438 9.14599 30.9016 7.3977 31.0097 6.40515L29.0215 6.1886C28.9004 7.30022 28.8438 9.14568 28.8438 11.6875H30.8438ZM31.0088 6.41372C31.114 5.51956 31.4268 4.7104 31.9544 3.97186L30.3269 2.80939C29.6044 3.82085 29.1673 4.94919 29.0225 6.18003L31.0088 6.41372ZM31.9498 3.97822C32.472 3.25907 33.1797 2.69495 34.1035 2.29136L33.3028 0.458639C32.0807 0.992553 31.0801 1.77218 30.3315 2.80303L31.9498 3.97822ZM34.1035 2.29136C35.0257 1.88846 36.1344 1.67188 37.4531 1.67188V-0.328125C35.9177 -0.328125 34.5264 -0.0759554 33.3028 0.458639L34.1035 2.29136ZM37.4531 1.67188C38.6966 1.67188 39.776 1.87728 40.7085 2.26656L41.479 0.420938C40.2656 -0.0856128 38.918 -0.328125 37.4531 -0.328125V1.67188ZM40.7193 2.27099C41.6425 2.64384 42.3599 3.19516 42.8997 3.92358L44.5065 2.73267C43.7339 1.69025 42.7116 0.918662 41.4682 0.416508L40.7193 2.27099ZM42.8997 3.92358C43.4579 4.67671 43.7789 5.4776 43.8821 6.3379L45.8679 6.0996C45.7211 4.87657 45.2608 3.75037 44.5065 2.73267L42.8997 3.92358ZM43.8821 6.3379C43.9992 7.31347 44.0625 9.08194 44.0625 11.6875H46.0625C46.0625 9.08472 46.0008 7.20737 45.8679 6.0996L43.8821 6.3379ZM44.0625 11.6875V16.0156H46.0625V11.6875H44.0625ZM39.4844 7.70312C39.4844 7.09923 39.4672 6.5845 39.4295 6.1679C39.3946 5.78041 39.3349 5.37982 39.2034 5.0664L37.3591 5.83985C37.3552 5.83062 37.3688 5.86249 37.3876 5.96141C37.4052 6.05438 37.4226 6.18134 37.4376 6.34772C37.4677 6.68112 37.4844 7.12994 37.4844 7.70312H39.4844ZM39.2176 5.102C39.089 4.75922 38.8629 4.44638 38.5198 4.23106C38.187 4.02226 37.8209 3.95312 37.4844 3.95312V5.95312C37.5541 5.95312 37.5239 5.96733 37.4568 5.92519C37.4237 5.90445 37.3949 5.87787 37.3731 5.85002C37.3522 5.82328 37.3451 5.80464 37.3449 5.80425L39.2176 5.102ZM37.4844 3.95312C36.8295 3.95312 36.2491 4.23586 35.8653 4.79017L37.5097 5.92858C37.5157 5.91992 37.5165 5.92069 37.5103 5.92621C37.5038 5.93204 37.4939 5.93931 37.4815 5.94559C37.4693 5.95182 37.4605 5.95418 37.4581 5.9547C37.4563 5.95511 37.4641 5.95312 37.4844 5.95312V3.95312ZM35.8606 4.79706C35.7207 5.00276 35.6469 5.23041 35.6023 5.40525C35.554 5.59478 35.5198 5.80607 35.4946 6.02801C35.4443 6.47225 35.4219 7.03539 35.4219 7.70312H37.4219C37.4219 7.06878 37.4437 6.59025 37.4819 6.25324C37.501 6.08456 37.5222 5.97033 37.5403 5.89944C37.5621 5.81386 37.5658 5.8462 37.5144 5.92169L35.8606 4.79706ZM35.4219 7.70312V19.5156H37.4219V7.70312H35.4219ZM35.4219 19.5156C35.4219 20.2599 35.4363 20.8771 35.4668 21.36C35.4952 21.8083 35.5419 22.241 35.6451 22.5506L37.5424 21.9181C37.5425 21.9183 37.5275 21.8677 37.5092 21.7349C37.4922 21.6109 37.4762 21.4455 37.4629 21.2338C37.4361 20.8104 37.4219 20.2401 37.4219 19.5156H35.4219ZM35.654 22.5761C35.7849 22.9362 36.0216 23.2572 36.377 23.4744C36.7181 23.6828 37.0934 23.75 37.4375 23.75V21.75C37.3441 21.75 37.3601 21.7312 37.4199 21.7678C37.4504 21.7864 37.4793 21.812 37.5023 21.8411C37.5244 21.8692 37.5326 21.8899 37.5335 21.8926L35.654 22.5761ZM37.4375 23.75C37.8066 23.75 38.2044 23.6677 38.5567 23.4243C38.916 23.1761 39.1344 22.825 39.2505 22.4574L37.3433 21.8551C37.3378 21.8725 37.3375 21.8658 37.3509 21.8464C37.3655 21.8255 37.3887 21.8003 37.4198 21.7788C37.4858 21.7333 37.5163 21.75 37.4375 21.75V23.75ZM39.2505 22.4574C39.3523 22.1349 39.4037 21.6947 39.4353 21.2185C39.4686 20.7164 39.4844 20.084 39.4844 19.3281H37.4844C37.4844 20.0618 37.4689 20.6456 37.4397 21.0862C37.4088 21.5527 37.3664 21.7818 37.3433 21.8551L39.2505 22.4574ZM39.4844 19.3281V7.70312H37.4844V19.3281H39.4844ZM53.7656 5.76562L54.764 5.82291L54.8246 4.76562H53.7656V5.76562ZM53.6562 7.67188L52.6579 7.61459L54.5127 8.1881L53.6562 7.67188ZM55.3281 5.96875L55.8243 6.837L55.8286 6.83448L55.3281 5.96875ZM61.6094 8.09375L60.64 8.33933L60.6408 8.34244L61.6094 8.09375ZM61.9062 26.5V27.5H62.9062V26.5H61.9062ZM55.5938 26.5H54.5938V27.5H55.5938V26.5ZM53.8281 9.60938L54.7796 9.91721L54.7821 9.9092L53.8281 9.60938ZM53.6562 26.5V27.5H54.6562V26.5H53.6562ZM47.3438 26.5H46.3438V27.5H47.3438V26.5ZM47.3438 5.76562V4.76562H46.3438V5.76562H47.3438ZM52.7673 5.70834L52.6579 7.61459L54.6546 7.72916L54.764 5.82291L52.7673 5.70834ZM54.5127 8.1881C54.8984 7.54819 55.3402 7.11361 55.8243 6.83699L54.832 5.10051C54.0036 5.57389 53.3308 6.27473 52.7998 7.15565L54.5127 8.1881ZM55.8286 6.83448C56.3252 6.54743 56.9141 6.39062 57.625 6.39062V4.39062C56.6067 4.39062 55.6644 4.61924 54.8276 5.10302L55.8286 6.83448ZM57.625 6.39062C58.5511 6.39062 59.2111 6.60721 59.6852 6.95916L60.8773 5.35334C59.9764 4.68445 58.8655 4.39062 57.625 4.39062V6.39062ZM59.6852 6.95916C60.2002 7.34155 60.5023 7.79585 60.64 8.33933L62.5788 7.84817C62.3206 6.82915 61.7373 5.99179 60.8773 5.35334L59.6852 6.95916ZM60.6408 8.34244C60.8046 8.98047 60.9062 10.1612 60.9062 11.9688H62.9062C62.9062 10.1513 62.81 8.74869 62.578 7.84506L60.6408 8.34244ZM60.9062 11.9688V26.5H62.9062V11.9688H60.9062ZM61.9062 25.5H55.5938V27.5H61.9062V25.5ZM56.5938 26.5V12.1406H54.5938V26.5H56.5938ZM56.5938 12.1406C56.5938 11.4189 56.582 10.8246 56.5571 10.3642C56.5342 9.93933 56.4968 9.53 56.411 9.2439L54.4953 9.8186C54.4938 9.81371 54.5063 9.8592 54.5216 9.98823C54.5358 10.1074 54.549 10.267 54.56 10.4718C54.5821 10.8811 54.5938 11.4353 54.5938 12.1406H56.5938ZM56.411 9.2439C56.2983 8.86835 56.0625 8.53852 55.702 8.32219C55.3656 8.12037 54.9966 8.0625 54.6719 8.0625V10.0625C54.7743 10.0625 54.749 10.0828 54.673 10.0372C54.632 10.0126 54.5893 9.97614 54.5537 9.929C54.5188 9.88286 54.5022 9.84176 54.4953 9.8186L56.411 9.2439ZM54.6719 8.0625C54.3183 8.0625 53.9298 8.13408 53.5811 8.36007C53.2181 8.59538 52.9908 8.93817 52.8741 9.30955L54.7821 9.9092C54.7827 9.9073 54.7767 9.927 54.7554 9.95645C54.733 9.98734 54.7029 10.0163 54.6689 10.0384C54.6015 10.0821 54.5775 10.0625 54.6719 10.0625V8.0625ZM52.8767 9.30155C52.7753 9.61494 52.7292 10.0624 52.701 10.5341C52.6707 11.0415 52.6562 11.6939 52.6562 12.4844H54.6562C54.6562 11.7124 54.6705 11.1044 54.6974 10.6534C54.7109 10.4279 54.7271 10.2511 54.7445 10.1181C54.7531 10.052 54.7614 10.0018 54.7687 9.96517C54.7763 9.92693 54.7808 9.91334 54.7796 9.9172L52.8767 9.30155ZM52.6562 12.4844V26.5H54.6562V12.4844H52.6562ZM53.6562 25.5H47.3438V27.5H53.6562V25.5ZM48.3438 26.5V5.76562H46.3438V26.5H48.3438ZM47.3438 6.76562H53.7656V4.76562H47.3438V6.76562ZM70.75 3H71.75V2H70.75V3ZM70.75 6.26562H69.75V7.26562H70.75V6.26562ZM72.4531 6.26562H73.4531V5.26562H72.4531V6.26562ZM72.4531 9.54688V10.5469H73.4531V9.54688H72.4531ZM70.75 9.54688V8.54688H69.75V9.54688H70.75ZM70.9531 22.9219L70.1974 23.5768L70.2095 23.5907L70.2221 23.6042L70.9531 22.9219ZM72.7188 23.1562H73.7188V22.1562H72.7188V23.1562ZM72.7188 26.5V27.5H73.7188V26.5H72.7188ZM67.0938 26.3281L66.8944 27.3081L66.9024 27.3097L66.9105 27.3112L67.0938 26.3281ZM65.4688 25.5L64.7864 26.2311L64.7953 26.2392L65.4688 25.5ZM64.5938 24.0156L63.6139 24.2152L63.6146 24.2188L64.5938 24.0156ZM64.4219 9.54688H65.4219V8.54688H64.4219V9.54688ZM63.0625 9.54688H62.0625V10.5469H63.0625V9.54688ZM63.0625 6.26562V5.26562H62.0625V6.26562H63.0625ZM64.4219 6.26562V7.26562H65.4219V6.26562H64.4219ZM64.4219 3V2H63.4219V3H64.4219ZM69.75 3V6.26562H71.75V3H69.75ZM70.75 7.26562H72.4531V5.26562H70.75V7.26562ZM71.4531 6.26562V9.54688H73.4531V6.26562H71.4531ZM72.4531 8.54688H70.75V10.5469H72.4531V8.54688ZM69.75 9.54688V20.6406H71.75V9.54688H69.75ZM69.75 20.6406C69.75 21.3334 69.767 21.899 69.8047 22.3231C69.8234 22.5331 69.8493 22.7334 69.8879 22.9077C69.9145 23.0277 69.9836 23.3301 70.1974 23.5768L71.7088 22.2669C71.799 22.371 71.8334 22.4619 71.8386 22.4752C71.8475 22.4984 71.8466 22.5022 71.8406 22.4751C71.8284 22.4203 71.812 22.3158 71.7968 22.1457C71.7669 21.8093 71.75 21.3124 71.75 20.6406H69.75ZM70.2221 23.6042C70.4355 23.8329 70.6985 23.9315 70.8415 23.9771C71.011 24.0312 71.1944 24.0653 71.3723 24.089C71.7306 24.1365 72.1861 24.1562 72.7188 24.1562V22.1562C72.2202 22.1562 71.8657 22.1369 71.6355 22.1064C71.5192 22.0909 71.4636 22.0762 71.4495 22.0718C71.4089 22.0588 71.5437 22.089 71.6842 22.2396L70.2221 23.6042ZM71.7188 23.1562V26.5H73.7188V23.1562H71.7188ZM72.7188 25.5H70.1719V27.5H72.7188V25.5ZM70.1719 25.5C68.7376 25.5 67.7927 25.4412 67.277 25.3451L66.9105 27.3112C67.624 27.4442 68.7312 27.5 70.1719 27.5V25.5ZM67.2931 25.3482C66.8574 25.2596 66.4791 25.0677 66.1422 24.7608L64.7953 26.2392C65.3959 26.7864 66.1009 27.1467 66.8944 27.3081L67.2931 25.3482ZM66.1511 24.7689C65.8119 24.4524 65.6399 24.1351 65.5729 23.8124L63.6146 24.2188C63.7768 25.0004 64.1881 25.6726 64.7864 26.2311L66.1511 24.7689ZM65.5736 23.816C65.4833 23.3728 65.4219 22.1712 65.4219 20.0781H63.4219C63.4219 22.11 63.475 23.5335 63.6139 24.2152L65.5736 23.816ZM65.4219 20.0781V9.54688H63.4219V20.0781H65.4219ZM64.4219 8.54688H63.0625V10.5469H64.4219V8.54688ZM64.0625 9.54688V6.26562H62.0625V9.54688H64.0625ZM63.0625 7.26562H64.4219V5.26562H63.0625V7.26562ZM65.4219 6.26562V3H63.4219V6.26562H65.4219ZM64.4219 4H70.75V2H64.4219V4ZM79.4844 13.7969V14.7969H80.4844V13.7969H79.4844ZM73.5625 13.7969H72.5625V14.7969H73.5625V13.7969ZM74.1094 8.70312L73.1902 8.3092L73.1879 8.31457L74.1094 8.70312ZM85.5156 6.53125L84.9411 7.34976L84.9464 7.35344L85.5156 6.53125ZM87.4688 9.3125L86.4878 9.50684L86.4882 9.50862L87.4688 9.3125ZM87.7969 26.5V27.5H88.7969V26.5H87.7969ZM81.6562 26.5H80.6562V27.5H81.6562V26.5ZM81.6562 24.6562H82.6562L80.7694 24.1941L81.6562 24.6562ZM80.1562 26.3281L80.6729 27.1843L80.6771 27.1818L80.1562 26.3281ZM74.9375 25.9531L74.3741 26.7794L74.385 26.7866L74.9375 25.9531ZM74.2969 17L73.5426 16.3435L74.2969 17ZM77.9375 15.0312L78.2985 15.9638L78.3024 15.9623L77.9375 15.0312ZM81.2344 9.5625L80.3289 9.98693L80.337 10.0042L80.3458 10.0211L81.2344 9.5625ZM79.6406 9.48438L80.574 9.84338L80.5784 9.83169L79.6406 9.48438ZM81.4844 16.6406H82.4844V14.6694L80.8937 15.8337L81.4844 16.6406ZM79.7188 18.5L78.7701 18.1838L78.7671 18.1927L78.7643 18.2017L79.7188 18.5ZM79.6875 22.7344L78.7699 23.132L78.7755 23.1447L78.7813 23.1573L79.6875 22.7344ZM81.2969 22.8438L80.4024 22.3965L80.3985 22.4044L80.3947 22.4123L81.2969 22.8438ZM79.4844 12.7969H73.5625V14.7969H79.4844V12.7969ZM74.5625 13.7969V12.4062H72.5625V13.7969H74.5625ZM74.5625 12.4062C74.5625 10.8542 74.7424 9.77567 75.0308 9.09168L73.1879 8.31457C72.7472 9.35975 72.5625 10.75 72.5625 12.4062H74.5625ZM75.0285 9.09704C75.2951 8.475 75.8587 7.84599 76.8571 7.24882L75.8304 5.53243C74.5997 6.26859 73.6736 7.18125 73.1902 8.30921L75.0285 9.09704ZM76.8571 7.24882C77.7692 6.70325 79.0225 6.39062 80.6875 6.39062V4.39062C78.79 4.39062 77.1475 4.74467 75.8304 5.53243L76.8571 7.24882ZM80.6875 6.39062C82.7328 6.39062 84.1008 6.7599 84.9411 7.34974L86.0901 5.71276C84.7638 4.78177 82.913 4.39062 80.6875 4.39062V6.39062ZM84.9464 7.35344C85.8553 7.98265 86.3281 8.70061 86.4878 9.50684L88.4497 9.11816C88.1719 7.71605 87.3426 6.57985 86.0848 5.70906L84.9464 7.35344ZM86.4882 9.50862C86.6841 10.4885 86.7969 12.6479 86.7969 16.0938H88.7969C88.7969 12.6854 88.6909 10.324 88.4493 9.11638L86.4882 9.50862ZM86.7969 16.0938V26.5H88.7969V16.0938H86.7969ZM87.7969 25.5H81.6562V27.5H87.7969V25.5ZM82.6562 26.5V24.6562H80.6562V26.5H82.6562ZM80.7694 24.1941C80.4546 24.7983 80.0714 25.2084 79.6354 25.4745L80.6771 27.1818C81.4702 26.6978 82.0871 25.9934 82.5431 25.1184L80.7694 24.1941ZM79.6396 25.4719C79.2194 25.7255 78.6819 25.875 77.9844 25.875V27.875C78.9744 27.875 79.8848 27.6599 80.6729 27.1843L79.6396 25.4719ZM77.9844 25.875C77.0783 25.875 76.2546 25.6265 75.49 25.1196L74.385 26.7866C75.4746 27.5089 76.6821 27.875 77.9844 27.875V25.875ZM75.5008 25.1269C75.0266 24.8036 74.5625 23.9167 74.5625 21.875H72.5625C72.5625 24.0208 73.015 25.8527 74.3742 26.7794L75.5008 25.1269ZM74.5625 21.875V20.1719H72.5625V21.875H74.5625ZM74.5625 20.1719C74.5625 18.6433 74.8205 17.9216 75.0512 17.6565L73.5426 16.3435C72.7941 17.2034 72.5625 18.5962 72.5625 20.1719H74.5625ZM75.0512 17.6565C75.1763 17.5127 75.4746 17.2766 76.0499 16.9656C76.6061 16.6648 77.3515 16.3304 78.2985 15.9638L77.5765 14.0987C76.586 14.4821 75.7559 14.8508 75.0985 15.2063C74.4603 15.5515 73.907 15.9248 73.5426 16.3435L75.0512 17.6565ZM78.3024 15.9623C79.348 15.5525 80.1741 15.2006 80.7664 14.9087C81.0606 14.7636 81.3196 14.6225 81.5263 14.4861C81.6297 14.4179 81.7367 14.34 81.8343 14.2522C81.9223 14.1731 82.0555 14.0397 82.1534 13.8509L80.3779 12.9303C80.4117 12.8651 80.4457 12.8217 80.4638 12.8002C80.4829 12.7777 80.496 12.766 80.4972 12.7649C80.4981 12.764 80.4784 12.7813 80.4249 12.8167C80.3178 12.8873 80.1425 12.9864 79.8821 13.1148C79.365 13.3697 78.6 13.6975 77.5726 14.1002L78.3024 15.9623ZM82.1534 13.8509C82.308 13.5528 82.3805 13.1997 82.4217 12.8763C82.4654 12.5329 82.4844 12.1278 82.4844 11.6719H80.4844C80.4844 12.0805 80.4669 12.3942 80.4377 12.6237C80.4059 12.8732 80.3691 12.9472 80.3779 12.9303L82.1534 13.8509ZM82.4844 11.6719C82.4844 11.1091 82.463 10.6196 82.4149 10.2143C82.3699 9.83467 82.2916 9.4306 82.123 9.10386L80.3458 10.0211C80.3438 10.0173 80.3905 10.1263 80.4288 10.4497C80.4641 10.7475 80.4844 11.1513 80.4844 11.6719H82.4844ZM82.1398 9.13807C81.9946 8.82834 81.7715 8.54251 81.4495 8.34044C81.1286 8.1391 80.7758 8.0625 80.4375 8.0625V10.0625C80.4574 10.0625 80.4587 10.0647 80.4465 10.0615C80.4332 10.0581 80.4113 10.0501 80.3865 10.0346C80.3616 10.0189 80.3434 10.0017 80.3324 9.98862C80.3221 9.97637 80.3225 9.97318 80.3289 9.98693L82.1398 9.13807ZM80.4375 8.0625C80.1253 8.0625 79.7749 8.11223 79.4501 8.28418C79.1005 8.46923 78.8405 8.76541 78.7029 9.13706L80.5784 9.83169C80.565 9.8678 80.5406 9.91376 80.501 9.95897C80.4614 10.0041 80.4193 10.0341 80.3859 10.0518C80.3267 10.0831 80.3226 10.0625 80.4375 10.0625V8.0625ZM78.7073 9.1254C78.596 9.41462 78.5519 9.79693 78.5261 10.1499C78.4975 10.5409 78.4844 11.0354 78.4844 11.625H80.4844C80.4844 11.0584 80.4972 10.6179 80.5208 10.2955C80.5471 9.93484 80.581 9.82496 80.574 9.84335L78.7073 9.1254ZM78.4844 11.625V13.7969H80.4844V11.625H78.4844ZM80.8937 15.8337C80.3603 16.2241 79.9096 16.6034 79.56 16.9716C79.2203 17.3293 78.9198 17.7346 78.7701 18.1838L80.6674 18.8162C80.6844 18.7654 80.7615 18.6108 81.0103 18.3487C81.2492 18.0972 81.598 17.7967 82.075 17.4476L80.8937 15.8337ZM78.7643 18.2017C78.5629 18.846 78.4844 19.684 78.4844 20.6562H80.4844C80.4844 19.7535 80.5621 19.154 80.6732 18.7983L78.7643 18.2017ZM78.4844 20.6562C78.4844 21.2098 78.5017 21.6867 78.5399 22.0777C78.5756 22.4431 78.637 22.8251 78.7699 23.132L80.6051 22.3368C80.6092 22.3462 80.5966 22.3185 80.5788 22.2306C80.5621 22.1477 80.5451 22.0336 80.5304 21.8832C80.5009 21.5815 80.4844 21.1756 80.4844 20.6562H78.4844ZM78.7813 23.1573C78.9366 23.49 79.1838 23.7721 79.5222 23.9601C79.8489 24.1416 80.2018 24.2031 80.5312 24.2031V22.2031C80.4441 22.2031 80.448 22.1865 80.4935 22.2118C80.5166 22.2246 80.5407 22.2432 80.5615 22.266C80.5818 22.2882 80.5912 22.3061 80.5937 22.3115L78.7813 23.1573ZM80.5312 24.2031C81.099 24.2031 81.8427 24.0201 82.199 23.2752L80.3947 22.4123C80.4155 22.3688 80.4466 22.3238 80.4876 22.2838C80.5281 22.2445 80.5673 22.2209 80.5946 22.208C80.6424 22.1856 80.6378 22.2031 80.5312 22.2031V24.2031ZM82.1913 23.291C82.3445 22.9846 82.4013 22.5941 82.4329 22.2682C82.4685 21.9001 82.4844 21.4425 82.4844 20.9062H80.4844C80.4844 21.4116 80.469 21.7978 80.4421 22.0756C80.4287 22.2143 80.4137 22.3124 80.4001 22.3772C80.3846 22.4512 80.3788 22.4439 80.4024 22.3965L82.1913 23.291ZM82.4844 20.9062V16.6406H80.4844V20.9062H82.4844ZM96.4688 1.20312H97.4688V0.203125H96.4688V1.20312ZM96.4688 26.5V27.5H97.4688V26.5H96.4688ZM89.9688 26.5H88.9688V27.5H89.9688V26.5ZM89.9688 1.20312V0.203125H88.9688V1.20312H89.9688ZM95.4688 1.20312V26.5H97.4688V1.20312H95.4688ZM96.4688 25.5H89.9688V27.5H96.4688V25.5ZM90.9688 26.5V1.20312H88.9688V26.5H90.9688ZM89.9688 2.20312H96.4688V0.203125H89.9688V2.20312ZM113.047 16.5V17.5H114.047V16.5H113.047ZM104.875 16.5V15.5H103.875V16.5H104.875ZM106.812 22.6719L105.903 22.2561L105.898 22.2682L106.812 22.6719ZM107.062 17.8438V16.8438H106.062V17.8438H107.062ZM113.047 17.8438H114.047V16.8438H113.047V17.8438ZM112.797 22.3281L111.825 22.0925L111.823 22.0995L111.822 22.1065L112.797 22.3281ZM109.406 26.2969L109.798 27.2171L109.803 27.2149L109.406 26.2969ZM100.062 24.7188L99.2933 25.3578L99.2986 25.3642L99.3041 25.3705L100.062 24.7188ZM98.8906 22.5L97.925 22.76L97.9259 22.7631L98.8906 22.5ZM99.2969 8.64062L100.202 9.06599L100.204 9.06253L99.2969 8.64062ZM101.703 6.23438L102.147 7.1305L102.154 7.12713L101.703 6.23438ZM109.922 6.40625L109.413 7.26723L109.422 7.27257L109.922 6.40625ZM112.344 9.07812L111.419 9.45846L111.423 9.4689L112.344 9.07812ZM106.719 13.125V14.125H107.719V13.125H106.719ZM105.031 9.46875L105.96 9.84017L105.965 9.82773L105.031 9.46875ZM104.875 13.125H103.875V14.125H104.875V13.125ZM113.047 15.5H104.875V17.5H113.047V15.5ZM103.875 16.5V20.9844H105.875V16.5H103.875ZM103.875 20.9844C103.875 21.4727 103.892 21.8988 103.932 22.252C103.968 22.5775 104.033 22.9434 104.184 23.2441L105.973 22.3497C105.987 22.3795 105.951 22.3079 105.92 22.0293C105.891 21.7783 105.875 21.4335 105.875 20.9844H103.875ZM104.184 23.2441C104.537 23.9512 105.218 24.2031 105.859 24.2031V22.2031C105.779 22.2031 105.787 22.1884 105.836 22.2143C105.862 22.2279 105.892 22.2486 105.919 22.2767C105.947 22.3047 105.963 22.3314 105.973 22.3497L104.184 23.2441ZM105.859 24.2031C106.217 24.2031 106.596 24.1375 106.944 23.9438C107.305 23.7423 107.568 23.438 107.727 23.0755L105.898 22.2682C105.897 22.2695 105.903 22.2567 105.919 22.2386C105.935 22.2199 105.954 22.2057 105.97 22.1968C106 22.1802 105.981 22.2031 105.859 22.2031V24.2031ZM107.722 23.0876C107.869 22.7659 107.947 22.3803 107.993 21.9936C108.041 21.5917 108.062 21.1169 108.062 20.5781H106.062C106.062 21.0706 106.042 21.4604 106.007 21.7564C105.97 22.0677 105.923 22.2132 105.903 22.2561L107.722 23.0876ZM108.062 20.5781V17.8438H106.062V20.5781H108.062ZM107.062 18.8438H113.047V16.8438H107.062V18.8438ZM112.047 17.8438V19.375H114.047V17.8438H112.047ZM112.047 19.375C112.047 20.6298 111.964 21.5206 111.825 22.0925L113.769 22.5637C113.963 21.7606 114.047 20.6827 114.047 19.375H112.047ZM111.822 22.1065C111.707 22.6116 111.415 23.2169 110.876 23.9262L112.468 25.1363C113.116 24.2831 113.574 23.4197 113.772 22.5497L111.822 22.1065ZM110.876 23.9262C110.388 24.5679 109.771 25.0499 109.01 25.3788L109.803 27.2149C110.874 26.7522 111.768 26.0571 112.468 25.1363L110.876 23.9262ZM109.015 25.3766C108.271 25.693 107.275 25.875 105.984 25.875V27.875C107.444 27.875 108.729 27.6716 109.798 27.2171L109.015 25.3766ZM105.984 25.875C104.746 25.875 103.692 25.6958 102.806 25.3613L102.1 27.2324C103.256 27.6687 104.556 27.875 105.984 27.875V25.875ZM102.806 25.3613C101.905 25.021 101.261 24.5795 100.821 24.067L99.3041 25.3705C100.009 26.1914 100.96 26.8019 102.1 27.2324L102.806 25.3613ZM100.832 24.0797C100.355 23.5059 100.034 22.8931 99.8554 22.2369L97.9259 22.7631C98.1844 23.7111 98.645 24.5774 99.2933 25.3578L100.832 24.0797ZM99.8562 22.24C99.6719 21.5553 99.5625 20.4825 99.5625 18.9688H97.5625C97.5625 20.5383 97.6719 21.8197 97.925 22.76L99.8562 22.24ZM99.5625 18.9688V12.9219H97.5625V18.9688H99.5625ZM99.5625 12.9219C99.5625 11.1808 99.8006 9.91989 100.202 9.06599L98.3919 8.21526C97.814 9.44469 97.5625 11.0379 97.5625 12.9219H99.5625ZM100.204 9.06253C100.59 8.23184 101.22 7.58945 102.147 7.13047L101.259 5.33828C99.9567 5.98347 98.9828 6.94524 98.3902 8.21872L100.204 9.06253ZM102.154 7.12713C103.108 6.64561 104.23 6.39062 105.547 6.39062V4.39062C103.967 4.39062 102.528 4.69814 101.253 5.34162L102.154 7.12713ZM105.547 6.39062C107.196 6.39062 108.464 6.70645 109.413 7.26718L110.431 5.54532C109.088 4.75188 107.439 4.39062 105.547 4.39062V6.39062ZM109.422 7.27257C110.409 7.84129 111.054 8.57054 111.419 9.45844L113.269 8.69781C112.717 7.35655 111.747 6.30454 110.421 5.53993L109.422 7.27257ZM111.423 9.4689C111.816 10.3933 112.047 11.7952 112.047 13.75H114.047C114.047 11.684 113.809 9.97129 113.264 8.68735L111.423 9.4689ZM112.047 13.75V16.5H114.047V13.75H112.047ZM107.719 13.125V11.6094H105.719V13.125H107.719ZM107.719 11.6094C107.719 11.0584 107.704 10.587 107.672 10.2027C107.643 9.842 107.592 9.47709 107.486 9.187L105.608 9.8755C105.608 9.87503 105.62 9.91171 105.636 10.0055C105.652 10.0945 105.666 10.2137 105.679 10.3676C105.705 10.676 105.719 11.0874 105.719 11.6094H107.719ZM107.486 9.187C107.369 8.86878 107.164 8.56374 106.84 8.34764C106.521 8.13486 106.167 8.0625 105.844 8.0625V10.0625C105.874 10.0625 105.815 10.0683 105.73 10.0117C105.641 9.95188 105.61 9.88122 105.608 9.8755L107.486 9.187ZM105.844 8.0625C105.238 8.0625 104.423 8.26577 104.098 9.10977L105.965 9.82773C105.948 9.8721 105.919 9.92258 105.875 9.9693C105.833 10.0155 105.79 10.0434 105.76 10.0585C105.708 10.0841 105.716 10.0625 105.844 10.0625V8.0625ZM104.103 9.09736C103.986 9.38915 103.942 9.77792 103.917 10.1264C103.888 10.5177 103.875 11.0148 103.875 11.6094H105.875C105.875 11.0373 105.888 10.5943 105.911 10.272C105.938 9.90698 105.972 9.80877 105.96 9.84014L104.103 9.09736ZM103.875 11.6094V13.125H105.875V11.6094H103.875ZM104.875 14.125H106.719V12.125H104.875V14.125ZM127.625 5.76562L128.594 6.01176L128.911 4.76562H127.625V5.76562ZM125.109 15.6719L124.14 15.4257L124.074 15.6851L124.147 15.9427L125.109 15.6719ZM128.156 26.5V27.5H129.476L129.119 26.2291L128.156 26.5ZM122.016 26.5L121.039 26.7161L121.213 27.5H122.016V26.5ZM120.641 19.4531L121.628 19.2964L119.655 19.286L120.641 19.4531ZM119.281 26.5V27.5H120.086L120.258 26.7136L119.281 26.5ZM114 26.5L113.03 26.2565L112.718 27.5H114V26.5ZM116.719 15.6719L117.689 15.9154L117.753 15.6606L117.683 15.4072L116.719 15.6719ZM114 5.76562V4.76562H112.689L113.036 6.03029L114 5.76562ZM119.281 5.76562L120.262 5.56997L120.101 4.76562H119.281V5.76562ZM120.641 12.9688L119.647 13.0772L121.626 13.1374L120.641 12.9688ZM122.016 5.76562V4.76562H121.232L121.045 5.52684L122.016 5.76562ZM126.656 5.51949L124.14 15.4257L126.079 15.918L128.594 6.01176L126.656 5.51949ZM124.147 15.9427L127.194 26.7709L129.119 26.2291L126.072 15.401L124.147 15.9427ZM128.156 25.5H122.016V27.5H128.156V25.5ZM122.992 26.2839C122.391 23.5672 121.937 21.2391 121.628 19.2964L119.653 19.6099C119.97 21.6047 120.432 23.9744 121.039 26.7161L122.992 26.2839ZM119.655 19.286C119.24 21.7301 118.79 24.0635 118.304 26.2864L120.258 26.7136C120.751 24.4573 121.207 22.0928 121.627 19.6202L119.655 19.286ZM119.281 25.5H114V27.5H119.281V25.5ZM114.97 26.7435L117.689 15.9154L115.749 15.4284L113.03 26.2565L114.97 26.7435ZM117.683 15.4072L114.964 5.50096L113.036 6.03029L115.754 15.9365L117.683 15.4072ZM114 6.76562H119.281V4.76562H114V6.76562ZM118.301 5.96128C119.151 10.2226 119.59 12.5612 119.647 13.0772L121.635 12.8603C121.566 12.2305 121.099 9.76699 120.262 5.56997L118.301 5.96128ZM121.626 13.1374C122.231 9.60268 122.684 7.23548 122.987 6.00441L121.045 5.52684C120.722 6.83744 120.259 9.27232 119.655 12.8001L121.626 13.1374ZM122.016 6.76562H127.625V4.76562H122.016V6.76562ZM128.891 5.71875L129.275 4.79539L127.891 4.21995V5.71875H128.891ZM143.922 11.9688H144.922V11.3015L144.306 11.0454L143.922 11.9688ZM143.922 15.1562L144.307 16.0789L144.922 15.8222V15.1562H143.922ZM128.891 21.4375H127.891V22.9392L129.276 22.3602L128.891 21.4375ZM128.891 17.3125L128.517 16.3848L127.891 16.6369V17.3125H128.891ZM138.172 13.5781L138.545 14.5058L140.856 13.5762L138.544 12.6499L138.172 13.5781ZM128.891 9.85938H127.891V10.536L128.519 10.7876L128.891 9.85938ZM128.507 6.64211L143.538 12.8921L144.306 11.0454L129.275 4.79539L128.507 6.64211ZM142.922 11.9688V15.1562H144.922V11.9688H142.922ZM143.536 14.2336L128.505 20.5148L129.276 22.3602L144.307 16.0789L143.536 14.2336ZM129.891 21.4375V17.3125H127.891V21.4375H129.891ZM129.264 18.2402L138.545 14.5058L137.799 12.6504L128.517 16.3848L129.264 18.2402ZM138.544 12.6499L129.263 8.93111L128.519 10.7876L137.8 14.5064L138.544 12.6499ZM129.891 9.85938V5.71875H127.891V9.85938H129.891Z" fill="black" mask="url(#path-1-outside-1_4_13)"/>
</svg>
